<?xml version="1.0" encoding="utf-8"?>
<!-- Generator: Adobe Illustrator 20.1.0, SVG Export Plug-In . SVG Version: 6.00 Build 0)  -->
<svg version="1.1" id="Layer_1" xmlns="http://www.w3.org/2000/svg" xmlns:xlink="http://www.w3.org/1999/xlink" x="0px" y="0px"
	 viewBox="0 0 159 37" style="enable-background:new 0 0 159 37;" xml:space="preserve">
<style type="text/css">
	.st0{fill:#FFFFFF;}
</style>
<path class="st0" d="M26.9,10.6c-0.3,0-0.5-0.1-0.7-0.3c-0.4-0.4-0.4-1,0-1.3c0,0,0,0,0,0l5.3-5.2c0.4-0.4,1-0.4,1.4,0
	c0.4,0.4,0.4,1,0,1.3c0,0,0,0,0,0l-5.3,5.2C27.4,10.5,27.1,10.6,26.9,10.6"/>
<path class="st0" d="M8.7,10.6c-0.3,0-0.5-0.1-0.7-0.3L2.7,5.1c-0.4-0.4-0.4-1,0-1.3c0,0,0,0,0,0c0.4-0.4,1-0.4,1.4,0L9.4,9
	c0.4,0.4,0.4,1,0,1.3c0,0,0,0,0,0C9.2,10.5,9,10.6,8.7,10.6"/>
<path class="st0" d="M32.2,33.7c-0.3,0-0.5-0.1-0.7-0.3l-5.3-5.2c-0.4-0.4-0.4-1,0-1.3c0,0,0,0,0,0c0.4-0.4,1-0.4,1.4,0l5.3,5.2
	c0.4,0.4,0.4,1,0,1.3c0,0,0,0,0,0C32.7,33.6,32.4,33.7,32.2,33.7"/>
<path class="st0" d="M3.4,33.7c-0.3,0-0.5-0.1-0.7-0.3c-0.4-0.4-0.4-1,0-1.3c0,0,0,0,0,0l5.3-5.3c0.4-0.4,1-0.4,1.4,0
	c0.4,0.4,0.4,1,0,1.3c0,0,0,0,0,0l-5.3,5.3C3.9,33.6,3.7,33.7,3.4,33.7"/>
<path class="st0" d="M34.6,17.6h-4.5c-6.2,0-11.3-5-11.3-11.2V1.9c0-0.5-0.4-0.9-0.9-0.9c-0.5,0-1,0.4-1,0.9v4.5
	c-0.1,6.2-5.1,11.2-11.3,11.2H1c0,0,0,0,0,0c-0.5,0-1,0.4-1,1s0.4,1,1,1h4.5c6.2,0,11.3,5,11.3,11.2v4.4c0,0,0,0,0,0
	c0,0.5,0.4,1,1,1l0,0c0,0,0,0,0,0c0.5,0,1-0.4,1-1v-4.4c0.1-6.2,5.1-11.2,11.3-11.2h4.5c0,0,0,0,0,0c0.5,0,1-0.4,1-1
	C35.6,18,35.1,17.6,34.6,17.6z M17.8,25.8c-1.4-3.3-4-5.9-7.3-7.2c3.3-1.3,5.9-3.9,7.3-7.2c1.4,3.3,4,5.9,7.3,7.2
	C21.8,19.9,19.2,22.5,17.8,25.8z"/>
<path class="st0" d="M64.1,17.6c-0.2-5.2-4.5-9.3-9.7-9.1c-0.1,0-0.2,0-0.3,0c-5.2,0-9.5,4.3-9.4,9.5v0c0,0.1,0,0.3,0,0.4
	c0.2,5.2,4.5,9.3,9.7,9.1c0.1,0,0.2,0,0.3,0c5.2,0,9.5-4.3,9.4-9.5V18C64.1,17.9,64.1,17.8,64.1,17.6z M54.4,24.6
	c-0.1,0-0.1,0-0.2,0c-3.5-0.1-6.2-3.1-6.1-6.6V18c0-0.1,0-0.2,0-0.3c0-3.5,2.8-6.3,6.3-6.2c0.1,0,0.1,0,0.2,0
	c3.5,0.1,6.2,3.1,6.1,6.6v0l0,0c0,0.1,0,0.2,0,0.3C60.6,21.9,57.8,24.7,54.4,24.6z"/>
<path class="st0" d="M73.5,8.9h-7.3h0v18.5h3.3v-5.9h3.7c4.1,0,7.4-2.2,7.4-6.3V15C80.6,11.3,77.8,8.9,73.5,8.9z M77.3,15.2
	c0,1.9-1.5,3.3-4,3.3h-3.8v-6.6h3.8C75.7,11.8,77.3,12.9,77.3,15.2L77.3,15.2z"/>
<polygon class="st0" points="87.8,11.9 81.9,11.9 81.9,8.9 97,8.9 97,11.9 91.1,11.9 91.1,27.3 87.8,27.3 "/>
<polygon class="st0" points="99.6,8.9 113.4,8.9 113.4,11.8 102.8,11.8 102.8,16.6 112.2,16.6 112.2,19.5 102.8,19.5 102.8,24.4 
	113.5,24.4 113.5,27.3 99.6,27.3 "/>
<path class="st0" d="M114.4,18.1L114.4,18.1c-0.1-5.2,4-9.5,9.2-9.6c0.1,0,0.3,0,0.4,0c2.7-0.1,5.4,0.9,7.3,2.9l-2.1,2.4
	c-1.4-1.4-3.2-2.3-5.2-2.3c-3.4,0-6.2,2.9-6.1,6.3c0,0.1,0,0.1,0,0.2v0.1c0,3.6,2.6,6.6,6.1,6.6c2.3,0,3.7-0.9,5.3-2.4l2.1,2.1
	c-1.9,2.2-4.7,3.4-7.6,3.3c-5.1,0.1-9.4-4-9.5-9.2C114.4,18.3,114.4,18.2,114.4,18.1"/>
<polygon class="st0" points="145.7,8.9 136.8,18.1 136.8,8.9 133.5,8.9 133.5,27.3 136.8,27.3 136.8,22 139.7,19 146.1,27.3 
	150,27.3 142,16.8 149.7,8.9 145.7,8.9 "/>
</svg>
