<?xml version="1.0" encoding="utf-8"?>
<!-- Generator: Adobe Illustrator 16.0.0, SVG Export Plug-In . SVG Version: 6.00 Build 0)  -->
<!DOCTYPE svg PUBLIC "-//W3C//DTD SVG 1.1//EN" "http://www.w3.org/Graphics/SVG/1.1/DTD/svg11.dtd">
<svg version="1.1" id="Layer_1" xmlns="http://www.w3.org/2000/svg" xmlns:xlink="http://www.w3.org/1999/xlink" x="0px" y="0px"
	 width="439px" height="1024px" viewBox="0 0 439 1024" enable-background="new 0 0 439 1024" xml:space="preserve">
<g id="icomoon-ignore">
</g>
<path opacity="0.4" d="M438.857,201.143v621.714c0,9.904-3.619,18.476-10.857,25.714c-7.238,7.237-15.81,10.856-25.714,10.856
	c-9.905,0-18.476-3.619-25.714-10.856L186.286,658.285H36.572c-9.905,0-18.476-3.619-25.714-10.857
	c-7.238-7.238-10.857-15.809-10.857-25.714V402.285c0-9.905,3.619-18.476,10.857-25.714c7.238-7.238,15.81-10.857,25.714-10.857
	h149.714l190.286-190.286c7.238-7.238,15.809-10.856,25.714-10.856c9.904,0,18.476,3.619,25.714,10.856
	C435.238,182.666,438.857,191.237,438.857,201.143L438.857,201.143z"/>
</svg>
