<?xml version="1.0" encoding="utf-8"?>
<!-- Generator: Adobe Illustrator 16.0.0, SVG Export Plug-In . SVG Version: 6.00 Build 0)  -->
<!DOCTYPE svg PUBLIC "-//W3C//DTD SVG 1.1//EN" "http://www.w3.org/Graphics/SVG/1.1/DTD/svg11.dtd">
<svg version="1.1" id="Layer_1" xmlns="http://www.w3.org/2000/svg" xmlns:xlink="http://www.w3.org/1999/xlink" x="0px" y="0px"
	 width="57px" height="57px" viewBox="0 0 57 57" enable-background="new 0 0 57 57" xml:space="preserve">
<g id="icomoon-ignore">
</g>
<path fill="#FFFFFF" d="M0.52,11.208C0.52,11.208,0.52,11.208,0.52,11.208L17.812,28.5L0.521,45.792c0,0,0,0,0,0.001
	c-0.187,0.186-0.321,0.403-0.407,0.635c-0.236,0.634-0.102,1.374,0.408,1.884l8.168,8.168c0.509,0.51,1.25,0.644,1.883,0.407
	c0.232-0.086,0.449-0.221,0.636-0.406c0,0,0-0.001,0-0.001L28.5,39.188l17.292,17.292c0,0,0,0,0,0.001
	c0.187,0.186,0.404,0.32,0.636,0.406c0.633,0.236,1.374,0.102,1.883-0.407l8.169-8.169c0.509-0.509,0.644-1.249,0.407-1.883
	c-0.086-0.231-0.221-0.449-0.407-0.636l0,0L39.188,28.5L56.48,11.208c0,0,0,0,0,0c0.187-0.186,0.321-0.404,0.407-0.635
	c0.236-0.633,0.102-1.374-0.407-1.883l-8.169-8.168c-0.51-0.509-1.25-0.644-1.883-0.408c-0.231,0.086-0.449,0.221-0.636,0.407
	c0,0,0,0-0.001,0L28.5,17.813L11.208,0.521c0,0,0,0-0.001,0c-0.186-0.186-0.404-0.321-0.635-0.407
	C9.938-0.124,9.198,0.011,8.689,0.521L0.52,8.689c-0.509,0.509-0.644,1.25-0.407,1.883C0.199,10.804,0.333,11.021,0.52,11.208
	L0.52,11.208z"/>
</svg>
