<?xml version="1.0" encoding="utf-8"?>
<!-- Generator: Adobe Illustrator 16.0.0, SVG Export Plug-In . SVG Version: 6.00 Build 0)  -->
<!DOCTYPE svg PUBLIC "-//W3C//DTD SVG 1.1//EN" "http://www.w3.org/Graphics/SVG/1.1/DTD/svg11.dtd">
<svg version="1.1" id="Layer_1" xmlns="http://www.w3.org/2000/svg" xmlns:xlink="http://www.w3.org/1999/xlink" x="0px" y="0px"
	 width="50px" height="50px" viewBox="0 0 50 50" enable-background="new 0 0 50 50" xml:space="preserve">
<g>
	<g>
		<path fill="#FFFFFF" d="M19.153,38.594c0.064-0.271,0.104-0.553,0.108-0.84c0.043-2.555-2.372-4.658-5.393-4.697
			c-3.021-0.035-5.507,2.007-5.55,4.563c-0.005,0.287,0.026,0.567,0.08,0.841c-0.064,0.272-0.104,0.552-0.108,0.839
			c-0.004,0.328,0.031,0.65,0.104,0.96c-0.083,0.31-0.13,0.63-0.135,0.958c-0.005,0.33,0.03,0.65,0.102,0.961
			c-0.082,0.31-0.129,0.629-0.134,0.958c-0.005,0.329,0.031,0.65,0.103,0.962c-0.082,0.308-0.13,0.628-0.135,0.957
			c-0.044,2.557,2.373,4.659,5.393,4.696c3.021,0.037,5.506-2.005,5.549-4.561c0.006-0.33-0.031-0.651-0.104-0.961
			c0.083-0.31,0.13-0.629,0.136-0.958c0.006-0.329-0.031-0.651-0.104-0.961c0.083-0.31,0.131-0.629,0.135-0.958
			c0.007-0.329-0.031-0.65-0.103-0.962c0.083-0.308,0.131-0.628,0.135-0.957C19.238,39.147,19.207,38.867,19.153,38.594z
			 M13.729,41.33c-2.379-0.028-4.279-1.684-4.246-3.695c0.035-2.013,1.99-3.62,4.368-3.59c2.376,0.028,4.278,1.684,4.245,3.695
			C18.062,39.752,16.109,41.36,13.729,41.33z"/>
		<path fill="#FFFFFF" d="M15.174,37.735c-0.125-0.109-0.287-0.201-0.486-0.278c-0.104-0.041-0.319-0.096-0.643-0.169l0.026-1.571
			c0.209,0.039,0.375,0.117,0.493,0.232c0.118,0.114,0.194,0.279,0.229,0.495l0.667-0.076c-0.051-0.348-0.215-0.621-0.495-0.822
			c-0.217-0.158-0.512-0.254-0.886-0.29l0.003-0.26l-0.378-0.005l-0.004,0.263c-0.427,0.029-0.752,0.125-0.971,0.283
			c-0.33,0.236-0.496,0.549-0.503,0.936c-0.004,0.217,0.049,0.413,0.157,0.586c0.108,0.173,0.264,0.31,0.467,0.408
			c0.275,0.136,0.544,0.226,0.808,0.271l-0.029,1.734c-0.251-0.025-0.467-0.137-0.645-0.333c-0.125-0.137-0.21-0.354-0.255-0.647
			l-0.649,0.095c0.02,0.283,0.1,0.523,0.243,0.722c0.143,0.197,0.315,0.342,0.516,0.432c0.2,0.09,0.46,0.154,0.783,0.193
			l-0.009,0.545l0.378,0.006L14,39.931c0.452-0.013,0.822-0.143,1.11-0.393c0.288-0.248,0.435-0.561,0.442-0.938
			c0.002-0.171-0.028-0.331-0.094-0.479C15.394,37.972,15.298,37.843,15.174,37.735z M13.667,37.213
			c-0.292-0.078-0.499-0.18-0.62-0.306c-0.121-0.128-0.179-0.283-0.176-0.469c0.004-0.188,0.078-0.351,0.224-0.485
			c0.149-0.137,0.348-0.219,0.598-0.246L13.667,37.213z M14.634,39.21c-0.166,0.156-0.374,0.243-0.625,0.268l0.029-1.659
			c0.344,0.099,0.573,0.21,0.687,0.331c0.113,0.122,0.168,0.28,0.165,0.479C14.886,38.86,14.8,39.055,14.634,39.21z"/>
	</g>
	<path fill="#FFFFFF" d="M32.07,2.312l2.445,2.573c0,0-10.293,12.38-23.345,10.073l2.374,3.823l-6.341,4.714
		c0,0,18.43,3.525,29.204-16.391l1.916,3.943l1.105-10.607L32.07,2.312z M11.661,22.21l3.481-2.744c0,0,6.411,0.927,14.467-5.146
		C29.608,14.321,22.766,21.998,11.661,22.21z"/>
	<g>
		<path fill="#FFFFFF" d="M30.934,36.245c0.091-0.325,0.144-0.664,0.15-1.014c0.004-0.328-0.032-0.649-0.104-0.961
			c0.084-0.308,0.13-0.628,0.136-0.957c0.005-0.329-0.03-0.65-0.103-0.961c0.082-0.309,0.127-0.629,0.135-0.958
			c0.004-0.329-0.032-0.65-0.102-0.96c0.081-0.31,0.126-0.629,0.133-0.959c0.005-0.288-0.025-0.57-0.08-0.845
			c0.063-0.271,0.102-0.549,0.106-0.834c0.043-2.557-2.33-4.66-5.3-4.696c-2.968-0.038-5.411,2.005-5.453,4.561
			c-0.005,0.287,0.025,0.567,0.079,0.841c-0.063,0.271-0.102,0.551-0.106,0.838c-0.005,0.329,0.032,0.65,0.102,0.961
			c-0.081,0.309-0.127,0.629-0.133,0.959c-0.006,0.328,0.032,0.648,0.102,0.96c-0.082,0.308-0.127,0.628-0.133,0.957
			c-0.005,0.331,0.032,0.651,0.102,0.961c-0.08,0.31-0.127,0.629-0.134,0.958c-0.007,0.526,0.097,1.028,0.276,1.502
			c-0.092,0.328-0.146,0.669-0.152,1.021c-0.005,0.293,0.025,0.577,0.081,0.854c-0.063,0.269-0.104,0.543-0.109,0.825
			c-0.005,0.328,0.032,0.65,0.102,0.96c-0.081,0.31-0.127,0.63-0.133,0.958c-0.006,0.33,0.032,0.65,0.102,0.961
			c-0.082,0.31-0.127,0.629-0.133,0.958c-0.005,0.329,0.032,0.65,0.102,0.962c-0.08,0.308-0.127,0.628-0.134,0.957
			c-0.042,2.557,2.333,4.659,5.301,4.696c2.97,0.037,5.412-2.005,5.454-4.561c0.004-0.33-0.032-0.651-0.104-0.961
			c0.084-0.31,0.13-0.629,0.136-0.958c0.005-0.329-0.03-0.651-0.103-0.961c0.082-0.31,0.127-0.629,0.135-0.958
			c0.004-0.329-0.032-0.65-0.102-0.962c0.081-0.308,0.126-0.628,0.133-0.957c0.005-0.282-0.031-0.556-0.083-0.824
			c0.064-0.277,0.105-0.562,0.109-0.855C31.216,37.226,31.115,36.72,30.934,36.245z M25.769,31.372
			c-2.336-0.029-4.204-1.684-4.171-3.694c0.034-2.013,1.954-3.621,4.292-3.592c2.337,0.028,4.205,1.684,4.173,3.696
			C30.028,29.796,28.105,31.401,25.769,31.372z"/>
		<path fill="#FFFFFF" d="M27.188,27.777c-0.123-0.109-0.281-0.201-0.477-0.278c-0.104-0.039-0.313-0.096-0.632-0.169l0.027-1.571
			c0.204,0.038,0.367,0.116,0.482,0.23c0.117,0.117,0.19,0.282,0.226,0.497l0.657-0.077c-0.053-0.346-0.214-0.62-0.487-0.821
			c-0.213-0.158-0.504-0.254-0.871-0.29l0.004-0.26l-0.372-0.005l-0.003,0.26c-0.422,0.031-0.74,0.126-0.957,0.285
			c-0.323,0.237-0.486,0.547-0.494,0.936c-0.002,0.219,0.049,0.412,0.155,0.586s0.259,0.31,0.458,0.409
			c0.27,0.136,0.535,0.225,0.795,0.27l-0.03,1.735c-0.246-0.025-0.459-0.136-0.633-0.332c-0.123-0.139-0.206-0.354-0.25-0.648
			l-0.639,0.096c0.02,0.281,0.099,0.522,0.241,0.722c0.14,0.195,0.309,0.34,0.504,0.43c0.199,0.092,0.455,0.155,0.77,0.194
			l-0.009,0.544l0.373,0.005l0.01-0.55c0.444-0.013,0.808-0.145,1.091-0.395c0.283-0.248,0.429-0.56,0.434-0.938
			c0.003-0.171-0.028-0.332-0.093-0.479C27.404,28.014,27.311,27.886,27.188,27.777z M25.707,27.256
			c-0.285-0.078-0.489-0.182-0.608-0.309c-0.118-0.126-0.175-0.282-0.172-0.466c0.003-0.189,0.076-0.352,0.219-0.485
			c0.145-0.136,0.341-0.22,0.586-0.248L25.707,27.256z M26.658,29.251c-0.163,0.156-0.368,0.246-0.614,0.269l0.025-1.66
			c0.341,0.101,0.565,0.209,0.677,0.332c0.111,0.122,0.166,0.281,0.163,0.479C26.904,28.901,26.822,29.096,26.658,29.251z"/>
	</g>
	<g>
		<path fill="#FFFFFF" d="M43.726,34.786c0.022-0.152,0.034-0.304,0.037-0.459c0.004-0.33-0.031-0.65-0.104-0.962
			c0.08-0.309,0.129-0.628,0.135-0.958c0.006-0.328-0.03-0.65-0.103-0.961c0.082-0.307,0.13-0.628,0.135-0.957
			c0.005-0.33-0.03-0.649-0.102-0.961c0.083-0.308,0.128-0.63,0.134-0.958c0.005-0.327-0.03-0.648-0.103-0.959
			c0.002-0.024,0.005-0.048,0.007-0.074c0.004-0.33-0.031-0.649-0.104-0.96c0.08-0.309,0.129-0.63,0.135-0.959
			c0.006-0.329-0.03-0.649-0.103-0.96c0.082-0.309,0.13-0.628,0.135-0.958c0.005-0.329-0.03-0.649-0.102-0.96
			c0.083-0.308,0.128-0.627,0.134-0.957c0.005-0.288-0.026-0.568-0.08-0.842c0.064-0.271,0.104-0.551,0.109-0.838
			c0.043-2.556-2.379-4.658-5.408-4.696c-3.028-0.036-5.52,2.006-5.563,4.563c-0.005,0.288,0.025,0.569,0.081,0.843
			c-0.064,0.271-0.104,0.549-0.108,0.836c-0.007,0.329,0.031,0.65,0.103,0.96c-0.081,0.309-0.129,0.629-0.135,0.958
			c-0.006,0.329,0.03,0.649,0.104,0.96c-0.082,0.31-0.131,0.628-0.137,0.958c-0.005,0.329,0.031,0.65,0.104,0.96
			c-0.082,0.309-0.13,0.629-0.136,0.957c-0.006,0.329,0.032,0.648,0.103,0.958c0,0.025-0.005,0.051-0.005,0.077
			c-0.007,0.327,0.031,0.649,0.103,0.96c-0.081,0.309-0.129,0.629-0.135,0.957c-0.006,0.33,0.03,0.651,0.104,0.96
			c-0.082,0.311-0.131,0.631-0.137,0.959c-0.005,0.329,0.031,0.651,0.104,0.961c-0.082,0.31-0.13,0.628-0.136,0.958
			c-0.006,0.399,0.054,0.787,0.161,1.159c-0.021,0.151-0.033,0.305-0.036,0.458c-0.005,0.335,0.034,0.661,0.108,0.978
			c-0.063,0.271-0.104,0.548-0.108,0.833c-0.004,0.287,0.027,0.567,0.082,0.839c-0.064,0.273-0.104,0.554-0.109,0.841
			c-0.007,0.328,0.031,0.65,0.103,0.96c-0.081,0.31-0.129,0.63-0.135,0.958c-0.006,0.33,0.03,0.65,0.104,0.961
			c-0.082,0.31-0.131,0.629-0.137,0.958c-0.005,0.329,0.031,0.65,0.104,0.962c-0.082,0.308-0.13,0.628-0.136,0.957
			c-0.042,2.557,2.378,4.659,5.407,4.696s5.521-2.005,5.564-4.561c0.004-0.33-0.031-0.651-0.104-0.961
			c0.08-0.31,0.129-0.629,0.135-0.958s-0.03-0.651-0.103-0.961c0.082-0.31,0.13-0.629,0.135-0.958s-0.03-0.65-0.102-0.962
			c0.083-0.308,0.128-0.628,0.134-0.957c0.005-0.286-0.026-0.566-0.08-0.841c0.063-0.271,0.104-0.551,0.109-0.839
			c0.005-0.334-0.035-0.661-0.108-0.976c0.063-0.271,0.103-0.549,0.108-0.835C43.893,35.545,43.833,35.157,43.726,34.786z
			 M38.341,23.678c-2.385-0.03-4.289-1.684-4.256-3.697c0.034-2.012,1.994-3.619,4.379-3.589c2.385,0.028,4.29,1.683,4.254,3.695
			C42.687,22.101,40.726,23.708,38.341,23.678z"/>
		<g>
			<path fill="#FFFFFF" d="M38.225,22.826l0.009-0.546c-0.323-0.038-0.585-0.104-0.784-0.193c-0.201-0.09-0.373-0.234-0.517-0.432
				c-0.144-0.197-0.227-0.438-0.245-0.72l0.65-0.096c0.046,0.295,0.131,0.511,0.255,0.649c0.18,0.196,0.396,0.307,0.647,0.333
				l0.03-1.735c-0.266-0.045-0.534-0.136-0.812-0.271c-0.204-0.099-0.359-0.234-0.467-0.408c-0.109-0.174-0.161-0.369-0.158-0.586
				c0.007-0.388,0.174-0.7,0.504-0.936c0.222-0.158,0.544-0.255,0.975-0.285l0.004-0.262l0.38,0.006l-0.005,0.261
				c0.376,0.035,0.671,0.13,0.89,0.289c0.279,0.201,0.443,0.474,0.496,0.82l-0.67,0.077c-0.036-0.214-0.111-0.38-0.229-0.495
				c-0.119-0.115-0.283-0.191-0.494-0.232l-0.026,1.572c0.324,0.072,0.539,0.129,0.643,0.168c0.201,0.078,0.363,0.169,0.488,0.279
				c0.124,0.108,0.221,0.236,0.285,0.384c0.066,0.147,0.097,0.308,0.095,0.479c-0.007,0.378-0.154,0.69-0.443,0.939
				c-0.287,0.25-0.658,0.38-1.11,0.393l-0.01,0.551L38.225,22.826z M38.305,18.054c-0.252,0.029-0.452,0.111-0.6,0.247
				c-0.146,0.136-0.221,0.297-0.224,0.484c-0.003,0.186,0.056,0.342,0.177,0.469c0.12,0.127,0.327,0.229,0.62,0.308L38.305,18.054z
				 M38.621,21.825c0.252-0.022,0.461-0.112,0.627-0.267c0.166-0.156,0.251-0.35,0.256-0.582c0.004-0.198-0.053-0.357-0.166-0.48
				c-0.115-0.122-0.345-0.231-0.688-0.331L38.621,21.825z"/>
		</g>
	</g>
</g>
</svg>
