<?xml version="1.0" encoding="utf-8"?>
<!-- Generator: Adobe Illustrator 16.0.0, SVG Export Plug-In . SVG Version: 6.00 Build 0)  -->
<!DOCTYPE svg PUBLIC "-//W3C//DTD SVG 1.1//EN" "http://www.w3.org/Graphics/SVG/1.1/DTD/svg11.dtd">
<svg version="1.1" id="Layer_1" xmlns="http://www.w3.org/2000/svg" xmlns:xlink="http://www.w3.org/1999/xlink" x="0px" y="0px"
	 width="1097px" height="1024px" viewBox="0 0 1097 1024" enable-background="new 0 0 1097 1024" xml:space="preserve">
<g id="icomoon-ignore">
</g>
<path opacity="0.4" d="M1024,566.857V91.428c0-4.952-1.81-9.238-5.429-12.856c-3.62-3.619-7.905-5.429-12.857-5.429H91.428
	c-4.953,0-9.238,1.81-12.857,5.429c-3.619,3.619-5.428,7.905-5.429,12.856v475.43c0,4.952,1.81,9.238,5.429,12.856
	c3.62,3.619,7.905,5.429,12.857,5.429h914.286c4.953,0,9.238-1.81,12.857-5.429C1022.189,576.095,1023.999,571.809,1024,566.857z
	 M1097.143,91.429v621.714c0,25.143-8.952,46.667-26.856,64.571c-17.905,17.905-39.429,26.857-64.571,26.857H694.857
	c0,14.095,3.048,28.856,9.144,44.286c6.095,15.428,12.19,28.952,18.286,40.57c6.096,11.619,9.143,19.904,9.143,24.857
	c0,9.904-3.619,18.476-10.856,25.714c-7.238,7.238-15.81,10.856-25.714,10.856H402.288c-9.905,0-18.477-3.618-25.714-10.856
	c-7.238-7.238-10.857-15.81-10.857-25.714c0-5.334,3.048-13.715,9.144-25.144c6.095-11.429,12.19-24.762,18.286-40
	c6.095-15.237,9.143-30.095,9.143-44.57H91.432c-25.143,0-46.667-8.952-64.571-26.857C8.956,759.81,0.004,738.285,0.004,713.143
	V91.429c0-25.143,8.952-46.666,26.857-64.571S66.289,0.001,91.432,0.001h914.286c25.143,0,46.667,8.952,64.571,26.857
	s26.857,39.428,26.857,64.571H1097.143z"/>
</svg>
